<mxfile host="app.diagrams.net" modified="2024-03-21T08:58:23.467Z" agent="Mozilla/5.0 (Windows NT 10.0; Win64; x64) AppleWebKit/537.36 (KHTML, like Gecko) Chrome/115.0.0.0 Safari/537.36" etag="xqJj3koDsGT6LV23OMN5" version="24.0.1" type="github">
  <diagram name="Trang-1" id="A-_vqMKWVQr660C769dK">
    <mxGraphModel dx="1834" dy="1158" grid="0" gridSize="10" guides="1" tooltips="1" connect="1" arrows="1" fold="1" page="0" pageScale="1" pageWidth="827" pageHeight="1169" math="0" shadow="0">
      <root>
        <mxCell id="0" />
        <mxCell id="1" parent="0" />
        <mxCell id="wH8gdFpppFBFeVhxwwnb-267" value="" style="edgeStyle=orthogonalEdgeStyle;rounded=0;orthogonalLoop=1;jettySize=auto;html=1;" edge="1" parent="1" source="wH8gdFpppFBFeVhxwwnb-1" target="wH8gdFpppFBFeVhxwwnb-231">
          <mxGeometry relative="1" as="geometry" />
        </mxCell>
        <mxCell id="wH8gdFpppFBFeVhxwwnb-1" value="4" style="childLayout=tableLayout;recursiveResize=0;strokeColor=#98bf21;fillColor=#A7C942;shadow=1;" vertex="1" parent="1">
          <mxGeometry x="-40" y="10" width="364" height="215.75" as="geometry" />
        </mxCell>
        <mxCell id="wH8gdFpppFBFeVhxwwnb-2" style="shape=tableRow;horizontal=0;startSize=0;swimlaneHead=0;swimlaneBody=0;top=0;left=0;bottom=0;right=0;dropTarget=0;collapsible=0;recursiveResize=0;expand=0;fontStyle=0;strokeColor=inherit;fillColor=#ffffff;" vertex="1" parent="wH8gdFpppFBFeVhxwwnb-1">
          <mxGeometry width="364" height="31" as="geometry" />
        </mxCell>
        <mxCell id="wH8gdFpppFBFeVhxwwnb-212" value="ID" style="connectable=0;recursiveResize=0;strokeColor=inherit;fillColor=#A7C942;align=center;fontStyle=1;fontColor=#FFFFFF;html=1;" vertex="1" parent="wH8gdFpppFBFeVhxwwnb-2">
          <mxGeometry width="91" height="31" as="geometry">
            <mxRectangle width="91" height="31" as="alternateBounds" />
          </mxGeometry>
        </mxCell>
        <mxCell id="wH8gdFpppFBFeVhxwwnb-3" value="APP" style="connectable=0;recursiveResize=0;strokeColor=inherit;fillColor=#A7C942;align=center;fontStyle=1;fontColor=#FFFFFF;html=1;" vertex="1" parent="wH8gdFpppFBFeVhxwwnb-2">
          <mxGeometry x="91" width="91" height="31" as="geometry">
            <mxRectangle width="91" height="31" as="alternateBounds" />
          </mxGeometry>
        </mxCell>
        <mxCell id="wH8gdFpppFBFeVhxwwnb-4" value="SITE" style="connectable=0;recursiveResize=0;strokeColor=inherit;fillColor=#A7C942;align=center;fontStyle=1;fontColor=#FFFFFF;html=1;" vertex="1" parent="wH8gdFpppFBFeVhxwwnb-2">
          <mxGeometry x="182" width="91" height="31" as="geometry">
            <mxRectangle width="91" height="31" as="alternateBounds" />
          </mxGeometry>
        </mxCell>
        <mxCell id="wH8gdFpppFBFeVhxwwnb-5" value="MODE" style="connectable=0;recursiveResize=0;strokeColor=inherit;fillColor=#A7C942;align=center;fontStyle=1;fontColor=#FFFFFF;html=1;" vertex="1" parent="wH8gdFpppFBFeVhxwwnb-2">
          <mxGeometry x="273" width="91" height="31" as="geometry">
            <mxRectangle width="91" height="31" as="alternateBounds" />
          </mxGeometry>
        </mxCell>
        <mxCell id="wH8gdFpppFBFeVhxwwnb-6" value="" style="shape=tableRow;horizontal=0;startSize=0;swimlaneHead=0;swimlaneBody=0;top=0;left=0;bottom=0;right=0;dropTarget=0;collapsible=0;recursiveResize=0;expand=0;fontStyle=0;strokeColor=inherit;fillColor=#ffffff;" vertex="1" parent="wH8gdFpppFBFeVhxwwnb-1">
          <mxGeometry y="31" width="364" height="31" as="geometry" />
        </mxCell>
        <mxCell id="wH8gdFpppFBFeVhxwwnb-213" value="1" style="connectable=0;recursiveResize=0;strokeColor=inherit;fillColor=inherit;align=center;whiteSpace=wrap;html=1;" vertex="1" parent="wH8gdFpppFBFeVhxwwnb-6">
          <mxGeometry width="91" height="31" as="geometry">
            <mxRectangle width="91" height="31" as="alternateBounds" />
          </mxGeometry>
        </mxCell>
        <mxCell id="wH8gdFpppFBFeVhxwwnb-7" value="OCP" style="connectable=0;recursiveResize=0;strokeColor=inherit;fillColor=inherit;align=center;whiteSpace=wrap;html=1;" vertex="1" parent="wH8gdFpppFBFeVhxwwnb-6">
          <mxGeometry x="91" width="91" height="31" as="geometry">
            <mxRectangle width="91" height="31" as="alternateBounds" />
          </mxGeometry>
        </mxCell>
        <mxCell id="wH8gdFpppFBFeVhxwwnb-8" value="1" style="connectable=0;recursiveResize=0;strokeColor=inherit;fillColor=inherit;align=center;whiteSpace=wrap;html=1;" vertex="1" parent="wH8gdFpppFBFeVhxwwnb-6">
          <mxGeometry x="182" width="91" height="31" as="geometry">
            <mxRectangle width="91" height="31" as="alternateBounds" />
          </mxGeometry>
        </mxCell>
        <mxCell id="wH8gdFpppFBFeVhxwwnb-9" value="FIXED" style="connectable=0;recursiveResize=0;strokeColor=inherit;fillColor=inherit;align=center;whiteSpace=wrap;html=1;" vertex="1" parent="wH8gdFpppFBFeVhxwwnb-6">
          <mxGeometry x="273" width="91" height="31" as="geometry">
            <mxRectangle width="91" height="31" as="alternateBounds" />
          </mxGeometry>
        </mxCell>
        <mxCell id="wH8gdFpppFBFeVhxwwnb-10" value="" style="shape=tableRow;horizontal=0;startSize=0;swimlaneHead=0;swimlaneBody=0;top=0;left=0;bottom=0;right=0;dropTarget=0;collapsible=0;recursiveResize=0;expand=0;fontStyle=1;strokeColor=inherit;fillColor=#EAF2D3;" vertex="1" parent="wH8gdFpppFBFeVhxwwnb-1">
          <mxGeometry y="62" width="364" height="31" as="geometry" />
        </mxCell>
        <mxCell id="wH8gdFpppFBFeVhxwwnb-214" value="2" style="connectable=0;recursiveResize=0;strokeColor=inherit;fillColor=inherit;whiteSpace=wrap;html=1;" vertex="1" parent="wH8gdFpppFBFeVhxwwnb-10">
          <mxGeometry width="91" height="31" as="geometry">
            <mxRectangle width="91" height="31" as="alternateBounds" />
          </mxGeometry>
        </mxCell>
        <mxCell id="wH8gdFpppFBFeVhxwwnb-11" value="OCP" style="connectable=0;recursiveResize=0;strokeColor=inherit;fillColor=inherit;whiteSpace=wrap;html=1;" vertex="1" parent="wH8gdFpppFBFeVhxwwnb-10">
          <mxGeometry x="91" width="91" height="31" as="geometry">
            <mxRectangle width="91" height="31" as="alternateBounds" />
          </mxGeometry>
        </mxCell>
        <mxCell id="wH8gdFpppFBFeVhxwwnb-12" value="2" style="connectable=0;recursiveResize=0;strokeColor=inherit;fillColor=inherit;whiteSpace=wrap;html=1;" vertex="1" parent="wH8gdFpppFBFeVhxwwnb-10">
          <mxGeometry x="182" width="91" height="31" as="geometry">
            <mxRectangle width="91" height="31" as="alternateBounds" />
          </mxGeometry>
        </mxCell>
        <mxCell id="wH8gdFpppFBFeVhxwwnb-13" value="DYNAMIC" style="connectable=0;recursiveResize=0;strokeColor=inherit;fillColor=inherit;whiteSpace=wrap;html=1;" vertex="1" parent="wH8gdFpppFBFeVhxwwnb-10">
          <mxGeometry x="273" width="91" height="31" as="geometry">
            <mxRectangle width="91" height="31" as="alternateBounds" />
          </mxGeometry>
        </mxCell>
        <mxCell id="wH8gdFpppFBFeVhxwwnb-14" value="" style="shape=tableRow;horizontal=0;startSize=0;swimlaneHead=0;swimlaneBody=0;top=0;left=0;bottom=0;right=0;dropTarget=0;collapsible=0;recursiveResize=0;expand=0;fontStyle=0;strokeColor=inherit;fillColor=#ffffff;" vertex="1" parent="wH8gdFpppFBFeVhxwwnb-1">
          <mxGeometry y="93" width="364" height="32" as="geometry" />
        </mxCell>
        <mxCell id="wH8gdFpppFBFeVhxwwnb-215" value="3" style="connectable=0;recursiveResize=0;strokeColor=inherit;fillColor=inherit;fontStyle=0;align=center;whiteSpace=wrap;html=1;" vertex="1" parent="wH8gdFpppFBFeVhxwwnb-14">
          <mxGeometry width="91" height="32" as="geometry">
            <mxRectangle width="91" height="32" as="alternateBounds" />
          </mxGeometry>
        </mxCell>
        <mxCell id="wH8gdFpppFBFeVhxwwnb-15" value="OCP" style="connectable=0;recursiveResize=0;strokeColor=inherit;fillColor=inherit;fontStyle=0;align=center;whiteSpace=wrap;html=1;" vertex="1" parent="wH8gdFpppFBFeVhxwwnb-14">
          <mxGeometry x="91" width="91" height="32" as="geometry">
            <mxRectangle width="91" height="32" as="alternateBounds" />
          </mxGeometry>
        </mxCell>
        <mxCell id="wH8gdFpppFBFeVhxwwnb-16" value="3" style="connectable=0;recursiveResize=0;strokeColor=inherit;fillColor=inherit;fontStyle=0;align=center;whiteSpace=wrap;html=1;" vertex="1" parent="wH8gdFpppFBFeVhxwwnb-14">
          <mxGeometry x="182" width="91" height="32" as="geometry">
            <mxRectangle width="91" height="32" as="alternateBounds" />
          </mxGeometry>
        </mxCell>
        <mxCell id="wH8gdFpppFBFeVhxwwnb-17" value="FIXED" style="connectable=0;recursiveResize=0;strokeColor=inherit;fillColor=inherit;fontStyle=0;align=center;whiteSpace=wrap;html=1;" vertex="1" parent="wH8gdFpppFBFeVhxwwnb-14">
          <mxGeometry x="273" width="91" height="32" as="geometry">
            <mxRectangle width="91" height="32" as="alternateBounds" />
          </mxGeometry>
        </mxCell>
        <mxCell id="wH8gdFpppFBFeVhxwwnb-18" value="" style="shape=tableRow;horizontal=0;startSize=0;swimlaneHead=0;swimlaneBody=0;top=0;left=0;bottom=0;right=0;dropTarget=0;collapsible=0;recursiveResize=0;expand=0;fontStyle=1;strokeColor=inherit;fillColor=#EAF2D3;" vertex="1" parent="wH8gdFpppFBFeVhxwwnb-1">
          <mxGeometry y="125" width="364" height="30" as="geometry" />
        </mxCell>
        <mxCell id="wH8gdFpppFBFeVhxwwnb-216" value="4" style="connectable=0;recursiveResize=0;strokeColor=inherit;fillColor=inherit;whiteSpace=wrap;html=1;" vertex="1" parent="wH8gdFpppFBFeVhxwwnb-18">
          <mxGeometry width="91" height="30" as="geometry">
            <mxRectangle width="91" height="30" as="alternateBounds" />
          </mxGeometry>
        </mxCell>
        <mxCell id="wH8gdFpppFBFeVhxwwnb-19" value="OCP" style="connectable=0;recursiveResize=0;strokeColor=inherit;fillColor=inherit;whiteSpace=wrap;html=1;" vertex="1" parent="wH8gdFpppFBFeVhxwwnb-18">
          <mxGeometry x="91" width="91" height="30" as="geometry">
            <mxRectangle width="91" height="30" as="alternateBounds" />
          </mxGeometry>
        </mxCell>
        <mxCell id="wH8gdFpppFBFeVhxwwnb-20" value="4" style="connectable=0;recursiveResize=0;strokeColor=inherit;fillColor=inherit;whiteSpace=wrap;html=1;" vertex="1" parent="wH8gdFpppFBFeVhxwwnb-18">
          <mxGeometry x="182" width="91" height="30" as="geometry">
            <mxRectangle width="91" height="30" as="alternateBounds" />
          </mxGeometry>
        </mxCell>
        <mxCell id="wH8gdFpppFBFeVhxwwnb-21" value="FIXED" style="connectable=0;recursiveResize=0;strokeColor=inherit;fillColor=inherit;whiteSpace=wrap;html=1;" vertex="1" parent="wH8gdFpppFBFeVhxwwnb-18">
          <mxGeometry x="273" width="91" height="30" as="geometry">
            <mxRectangle width="91" height="30" as="alternateBounds" />
          </mxGeometry>
        </mxCell>
        <mxCell id="wH8gdFpppFBFeVhxwwnb-146" value="" style="shape=tableRow;horizontal=0;startSize=0;swimlaneHead=0;swimlaneBody=0;top=0;left=0;bottom=0;right=0;dropTarget=0;collapsible=0;recursiveResize=0;expand=0;fontStyle=1;strokeColor=inherit;fillColor=#EAF2D3;" vertex="1" parent="wH8gdFpppFBFeVhxwwnb-1">
          <mxGeometry y="155" width="364" height="30" as="geometry" />
        </mxCell>
        <mxCell id="wH8gdFpppFBFeVhxwwnb-217" value="5" style="connectable=0;recursiveResize=0;strokeColor=inherit;fillColor=inherit;whiteSpace=wrap;html=1;" vertex="1" parent="wH8gdFpppFBFeVhxwwnb-146">
          <mxGeometry width="91" height="30" as="geometry">
            <mxRectangle width="91" height="30" as="alternateBounds" />
          </mxGeometry>
        </mxCell>
        <mxCell id="wH8gdFpppFBFeVhxwwnb-147" value="OCP" style="connectable=0;recursiveResize=0;strokeColor=inherit;fillColor=inherit;whiteSpace=wrap;html=1;" vertex="1" parent="wH8gdFpppFBFeVhxwwnb-146">
          <mxGeometry x="91" width="91" height="30" as="geometry">
            <mxRectangle width="91" height="30" as="alternateBounds" />
          </mxGeometry>
        </mxCell>
        <mxCell id="wH8gdFpppFBFeVhxwwnb-148" value="5" style="connectable=0;recursiveResize=0;strokeColor=inherit;fillColor=inherit;whiteSpace=wrap;html=1;" vertex="1" parent="wH8gdFpppFBFeVhxwwnb-146">
          <mxGeometry x="182" width="91" height="30" as="geometry">
            <mxRectangle width="91" height="30" as="alternateBounds" />
          </mxGeometry>
        </mxCell>
        <mxCell id="wH8gdFpppFBFeVhxwwnb-149" value="FIXED" style="connectable=0;recursiveResize=0;strokeColor=inherit;fillColor=inherit;whiteSpace=wrap;html=1;" vertex="1" parent="wH8gdFpppFBFeVhxwwnb-146">
          <mxGeometry x="273" width="91" height="30" as="geometry">
            <mxRectangle width="91" height="30" as="alternateBounds" />
          </mxGeometry>
        </mxCell>
        <mxCell id="wH8gdFpppFBFeVhxwwnb-138" value="" style="shape=tableRow;horizontal=0;startSize=0;swimlaneHead=0;swimlaneBody=0;top=0;left=0;bottom=0;right=0;dropTarget=0;collapsible=0;recursiveResize=0;expand=0;fontStyle=1;strokeColor=inherit;fillColor=#EAF2D3;" vertex="1" parent="wH8gdFpppFBFeVhxwwnb-1">
          <mxGeometry y="185" width="364" height="31" as="geometry" />
        </mxCell>
        <mxCell id="wH8gdFpppFBFeVhxwwnb-218" value="6" style="connectable=0;recursiveResize=0;strokeColor=inherit;fillColor=inherit;whiteSpace=wrap;html=1;" vertex="1" parent="wH8gdFpppFBFeVhxwwnb-138">
          <mxGeometry width="91" height="31" as="geometry">
            <mxRectangle width="91" height="31" as="alternateBounds" />
          </mxGeometry>
        </mxCell>
        <mxCell id="wH8gdFpppFBFeVhxwwnb-139" value="PRO" style="connectable=0;recursiveResize=0;strokeColor=inherit;fillColor=inherit;whiteSpace=wrap;html=1;" vertex="1" parent="wH8gdFpppFBFeVhxwwnb-138">
          <mxGeometry x="91" width="91" height="31" as="geometry">
            <mxRectangle width="91" height="31" as="alternateBounds" />
          </mxGeometry>
        </mxCell>
        <mxCell id="wH8gdFpppFBFeVhxwwnb-140" value="1" style="connectable=0;recursiveResize=0;strokeColor=inherit;fillColor=inherit;whiteSpace=wrap;html=1;" vertex="1" parent="wH8gdFpppFBFeVhxwwnb-138">
          <mxGeometry x="182" width="91" height="31" as="geometry">
            <mxRectangle width="91" height="31" as="alternateBounds" />
          </mxGeometry>
        </mxCell>
        <mxCell id="wH8gdFpppFBFeVhxwwnb-141" value="FIXED" style="connectable=0;recursiveResize=0;strokeColor=inherit;fillColor=inherit;whiteSpace=wrap;html=1;" vertex="1" parent="wH8gdFpppFBFeVhxwwnb-138">
          <mxGeometry x="273" width="91" height="31" as="geometry">
            <mxRectangle width="91" height="31" as="alternateBounds" />
          </mxGeometry>
        </mxCell>
        <mxCell id="wH8gdFpppFBFeVhxwwnb-231" value="4" style="childLayout=tableLayout;recursiveResize=0;strokeColor=#98bf21;fillColor=#A7C942;shadow=1;" vertex="1" parent="1">
          <mxGeometry x="404" y="10" width="364" height="215.75" as="geometry" />
        </mxCell>
        <mxCell id="wH8gdFpppFBFeVhxwwnb-232" style="shape=tableRow;horizontal=0;startSize=0;swimlaneHead=0;swimlaneBody=0;top=0;left=0;bottom=0;right=0;dropTarget=0;collapsible=0;recursiveResize=0;expand=0;fontStyle=0;strokeColor=inherit;fillColor=#ffffff;" vertex="1" parent="wH8gdFpppFBFeVhxwwnb-231">
          <mxGeometry width="364" height="31" as="geometry" />
        </mxCell>
        <mxCell id="wH8gdFpppFBFeVhxwwnb-233" value="ID" style="connectable=0;recursiveResize=0;strokeColor=inherit;fillColor=#A7C942;align=center;fontStyle=1;fontColor=#FFFFFF;html=1;" vertex="1" parent="wH8gdFpppFBFeVhxwwnb-232">
          <mxGeometry width="91" height="31" as="geometry">
            <mxRectangle width="91" height="31" as="alternateBounds" />
          </mxGeometry>
        </mxCell>
        <mxCell id="wH8gdFpppFBFeVhxwwnb-234" value="APP" style="connectable=0;recursiveResize=0;strokeColor=inherit;fillColor=#A7C942;align=center;fontStyle=1;fontColor=#FFFFFF;html=1;" vertex="1" parent="wH8gdFpppFBFeVhxwwnb-232">
          <mxGeometry x="91" width="91" height="31" as="geometry">
            <mxRectangle width="91" height="31" as="alternateBounds" />
          </mxGeometry>
        </mxCell>
        <mxCell id="wH8gdFpppFBFeVhxwwnb-235" value="SITE" style="connectable=0;recursiveResize=0;strokeColor=inherit;fillColor=#A7C942;align=center;fontStyle=1;fontColor=#FFFFFF;html=1;" vertex="1" parent="wH8gdFpppFBFeVhxwwnb-232">
          <mxGeometry x="182" width="91" height="31" as="geometry">
            <mxRectangle width="91" height="31" as="alternateBounds" />
          </mxGeometry>
        </mxCell>
        <mxCell id="wH8gdFpppFBFeVhxwwnb-236" value="MODE" style="connectable=0;recursiveResize=0;strokeColor=inherit;fillColor=#A7C942;align=center;fontStyle=1;fontColor=#FFFFFF;html=1;" vertex="1" parent="wH8gdFpppFBFeVhxwwnb-232">
          <mxGeometry x="273" width="91" height="31" as="geometry">
            <mxRectangle width="91" height="31" as="alternateBounds" />
          </mxGeometry>
        </mxCell>
        <mxCell id="wH8gdFpppFBFeVhxwwnb-237" value="" style="shape=tableRow;horizontal=0;startSize=0;swimlaneHead=0;swimlaneBody=0;top=0;left=0;bottom=0;right=0;dropTarget=0;collapsible=0;recursiveResize=0;expand=0;fontStyle=0;strokeColor=inherit;fillColor=#ffffff;" vertex="1" parent="wH8gdFpppFBFeVhxwwnb-231">
          <mxGeometry y="31" width="364" height="31" as="geometry" />
        </mxCell>
        <mxCell id="wH8gdFpppFBFeVhxwwnb-238" value="1" style="connectable=0;recursiveResize=0;strokeColor=inherit;fillColor=inherit;align=center;whiteSpace=wrap;html=1;" vertex="1" parent="wH8gdFpppFBFeVhxwwnb-237">
          <mxGeometry width="91" height="31" as="geometry">
            <mxRectangle width="91" height="31" as="alternateBounds" />
          </mxGeometry>
        </mxCell>
        <mxCell id="wH8gdFpppFBFeVhxwwnb-239" value="OCP" style="connectable=0;recursiveResize=0;strokeColor=inherit;fillColor=inherit;align=center;whiteSpace=wrap;html=1;" vertex="1" parent="wH8gdFpppFBFeVhxwwnb-237">
          <mxGeometry x="91" width="91" height="31" as="geometry">
            <mxRectangle width="91" height="31" as="alternateBounds" />
          </mxGeometry>
        </mxCell>
        <mxCell id="wH8gdFpppFBFeVhxwwnb-240" value="1" style="connectable=0;recursiveResize=0;strokeColor=inherit;fillColor=inherit;align=center;whiteSpace=wrap;html=1;" vertex="1" parent="wH8gdFpppFBFeVhxwwnb-237">
          <mxGeometry x="182" width="91" height="31" as="geometry">
            <mxRectangle width="91" height="31" as="alternateBounds" />
          </mxGeometry>
        </mxCell>
        <mxCell id="wH8gdFpppFBFeVhxwwnb-241" value="FIXED" style="connectable=0;recursiveResize=0;strokeColor=inherit;fillColor=inherit;align=center;whiteSpace=wrap;html=1;" vertex="1" parent="wH8gdFpppFBFeVhxwwnb-237">
          <mxGeometry x="273" width="91" height="31" as="geometry">
            <mxRectangle width="91" height="31" as="alternateBounds" />
          </mxGeometry>
        </mxCell>
        <mxCell id="wH8gdFpppFBFeVhxwwnb-242" value="" style="shape=tableRow;horizontal=0;startSize=0;swimlaneHead=0;swimlaneBody=0;top=0;left=0;bottom=0;right=0;dropTarget=0;collapsible=0;recursiveResize=0;expand=0;fontStyle=1;strokeColor=inherit;fillColor=#EAF2D3;" vertex="1" parent="wH8gdFpppFBFeVhxwwnb-231">
          <mxGeometry y="62" width="364" height="31" as="geometry" />
        </mxCell>
        <mxCell id="wH8gdFpppFBFeVhxwwnb-243" value="2" style="connectable=0;recursiveResize=0;strokeColor=inherit;fillColor=inherit;whiteSpace=wrap;html=1;" vertex="1" parent="wH8gdFpppFBFeVhxwwnb-242">
          <mxGeometry width="91" height="31" as="geometry">
            <mxRectangle width="91" height="31" as="alternateBounds" />
          </mxGeometry>
        </mxCell>
        <mxCell id="wH8gdFpppFBFeVhxwwnb-244" value="OCP" style="connectable=0;recursiveResize=0;strokeColor=inherit;fillColor=inherit;whiteSpace=wrap;html=1;" vertex="1" parent="wH8gdFpppFBFeVhxwwnb-242">
          <mxGeometry x="91" width="91" height="31" as="geometry">
            <mxRectangle width="91" height="31" as="alternateBounds" />
          </mxGeometry>
        </mxCell>
        <mxCell id="wH8gdFpppFBFeVhxwwnb-245" value="2" style="connectable=0;recursiveResize=0;strokeColor=inherit;fillColor=inherit;whiteSpace=wrap;html=1;" vertex="1" parent="wH8gdFpppFBFeVhxwwnb-242">
          <mxGeometry x="182" width="91" height="31" as="geometry">
            <mxRectangle width="91" height="31" as="alternateBounds" />
          </mxGeometry>
        </mxCell>
        <mxCell id="wH8gdFpppFBFeVhxwwnb-246" value="DYNAMIC" style="connectable=0;recursiveResize=0;strokeColor=inherit;fillColor=inherit;whiteSpace=wrap;html=1;" vertex="1" parent="wH8gdFpppFBFeVhxwwnb-242">
          <mxGeometry x="273" width="91" height="31" as="geometry">
            <mxRectangle width="91" height="31" as="alternateBounds" />
          </mxGeometry>
        </mxCell>
        <mxCell id="wH8gdFpppFBFeVhxwwnb-247" value="" style="shape=tableRow;horizontal=0;startSize=0;swimlaneHead=0;swimlaneBody=0;top=0;left=0;bottom=0;right=0;dropTarget=0;collapsible=0;recursiveResize=0;expand=0;fontStyle=0;strokeColor=inherit;fillColor=#ffffff;" vertex="1" parent="wH8gdFpppFBFeVhxwwnb-231">
          <mxGeometry y="93" width="364" height="32" as="geometry" />
        </mxCell>
        <mxCell id="wH8gdFpppFBFeVhxwwnb-248" value="3" style="connectable=0;recursiveResize=0;strokeColor=inherit;fillColor=inherit;fontStyle=0;align=center;whiteSpace=wrap;html=1;" vertex="1" parent="wH8gdFpppFBFeVhxwwnb-247">
          <mxGeometry width="91" height="32" as="geometry">
            <mxRectangle width="91" height="32" as="alternateBounds" />
          </mxGeometry>
        </mxCell>
        <mxCell id="wH8gdFpppFBFeVhxwwnb-249" value="OCP" style="connectable=0;recursiveResize=0;strokeColor=inherit;fillColor=inherit;fontStyle=0;align=center;whiteSpace=wrap;html=1;" vertex="1" parent="wH8gdFpppFBFeVhxwwnb-247">
          <mxGeometry x="91" width="91" height="32" as="geometry">
            <mxRectangle width="91" height="32" as="alternateBounds" />
          </mxGeometry>
        </mxCell>
        <mxCell id="wH8gdFpppFBFeVhxwwnb-250" value="3" style="connectable=0;recursiveResize=0;strokeColor=inherit;fillColor=inherit;fontStyle=0;align=center;whiteSpace=wrap;html=1;" vertex="1" parent="wH8gdFpppFBFeVhxwwnb-247">
          <mxGeometry x="182" width="91" height="32" as="geometry">
            <mxRectangle width="91" height="32" as="alternateBounds" />
          </mxGeometry>
        </mxCell>
        <mxCell id="wH8gdFpppFBFeVhxwwnb-251" value="FIXED" style="connectable=0;recursiveResize=0;strokeColor=inherit;fillColor=inherit;fontStyle=0;align=center;whiteSpace=wrap;html=1;" vertex="1" parent="wH8gdFpppFBFeVhxwwnb-247">
          <mxGeometry x="273" width="91" height="32" as="geometry">
            <mxRectangle width="91" height="32" as="alternateBounds" />
          </mxGeometry>
        </mxCell>
        <mxCell id="wH8gdFpppFBFeVhxwwnb-252" value="" style="shape=tableRow;horizontal=0;startSize=0;swimlaneHead=0;swimlaneBody=0;top=0;left=0;bottom=0;right=0;dropTarget=0;collapsible=0;recursiveResize=0;expand=0;fontStyle=1;strokeColor=inherit;fillColor=#EAF2D3;" vertex="1" parent="wH8gdFpppFBFeVhxwwnb-231">
          <mxGeometry y="125" width="364" height="30" as="geometry" />
        </mxCell>
        <mxCell id="wH8gdFpppFBFeVhxwwnb-253" value="4" style="connectable=0;recursiveResize=0;strokeColor=inherit;fillColor=inherit;whiteSpace=wrap;html=1;" vertex="1" parent="wH8gdFpppFBFeVhxwwnb-252">
          <mxGeometry width="91" height="30" as="geometry">
            <mxRectangle width="91" height="30" as="alternateBounds" />
          </mxGeometry>
        </mxCell>
        <mxCell id="wH8gdFpppFBFeVhxwwnb-254" value="OCP" style="connectable=0;recursiveResize=0;strokeColor=inherit;fillColor=inherit;whiteSpace=wrap;html=1;" vertex="1" parent="wH8gdFpppFBFeVhxwwnb-252">
          <mxGeometry x="91" width="91" height="30" as="geometry">
            <mxRectangle width="91" height="30" as="alternateBounds" />
          </mxGeometry>
        </mxCell>
        <mxCell id="wH8gdFpppFBFeVhxwwnb-255" value="4" style="connectable=0;recursiveResize=0;strokeColor=inherit;fillColor=inherit;whiteSpace=wrap;html=1;" vertex="1" parent="wH8gdFpppFBFeVhxwwnb-252">
          <mxGeometry x="182" width="91" height="30" as="geometry">
            <mxRectangle width="91" height="30" as="alternateBounds" />
          </mxGeometry>
        </mxCell>
        <mxCell id="wH8gdFpppFBFeVhxwwnb-256" value="FIXED" style="connectable=0;recursiveResize=0;strokeColor=inherit;fillColor=inherit;whiteSpace=wrap;html=1;" vertex="1" parent="wH8gdFpppFBFeVhxwwnb-252">
          <mxGeometry x="273" width="91" height="30" as="geometry">
            <mxRectangle width="91" height="30" as="alternateBounds" />
          </mxGeometry>
        </mxCell>
        <mxCell id="wH8gdFpppFBFeVhxwwnb-257" value="" style="shape=tableRow;horizontal=0;startSize=0;swimlaneHead=0;swimlaneBody=0;top=0;left=0;bottom=0;right=0;dropTarget=0;collapsible=0;recursiveResize=0;expand=0;fontStyle=1;strokeColor=inherit;fillColor=#EAF2D3;" vertex="1" parent="wH8gdFpppFBFeVhxwwnb-231">
          <mxGeometry y="155" width="364" height="30" as="geometry" />
        </mxCell>
        <mxCell id="wH8gdFpppFBFeVhxwwnb-258" value="5" style="connectable=0;recursiveResize=0;strokeColor=inherit;fillColor=inherit;whiteSpace=wrap;html=1;" vertex="1" parent="wH8gdFpppFBFeVhxwwnb-257">
          <mxGeometry width="91" height="30" as="geometry">
            <mxRectangle width="91" height="30" as="alternateBounds" />
          </mxGeometry>
        </mxCell>
        <mxCell id="wH8gdFpppFBFeVhxwwnb-259" value="OCP" style="connectable=0;recursiveResize=0;strokeColor=inherit;fillColor=inherit;whiteSpace=wrap;html=1;" vertex="1" parent="wH8gdFpppFBFeVhxwwnb-257">
          <mxGeometry x="91" width="91" height="30" as="geometry">
            <mxRectangle width="91" height="30" as="alternateBounds" />
          </mxGeometry>
        </mxCell>
        <mxCell id="wH8gdFpppFBFeVhxwwnb-260" value="5" style="connectable=0;recursiveResize=0;strokeColor=inherit;fillColor=inherit;whiteSpace=wrap;html=1;" vertex="1" parent="wH8gdFpppFBFeVhxwwnb-257">
          <mxGeometry x="182" width="91" height="30" as="geometry">
            <mxRectangle width="91" height="30" as="alternateBounds" />
          </mxGeometry>
        </mxCell>
        <mxCell id="wH8gdFpppFBFeVhxwwnb-261" value="FIXED" style="connectable=0;recursiveResize=0;strokeColor=inherit;fillColor=inherit;whiteSpace=wrap;html=1;" vertex="1" parent="wH8gdFpppFBFeVhxwwnb-257">
          <mxGeometry x="273" width="91" height="30" as="geometry">
            <mxRectangle width="91" height="30" as="alternateBounds" />
          </mxGeometry>
        </mxCell>
        <mxCell id="wH8gdFpppFBFeVhxwwnb-262" value="" style="shape=tableRow;horizontal=0;startSize=0;swimlaneHead=0;swimlaneBody=0;top=0;left=0;bottom=0;right=0;dropTarget=0;collapsible=0;recursiveResize=0;expand=0;fontStyle=1;strokeColor=inherit;fillColor=#EAF2D3;" vertex="1" parent="wH8gdFpppFBFeVhxwwnb-231">
          <mxGeometry y="185" width="364" height="31" as="geometry" />
        </mxCell>
        <mxCell id="wH8gdFpppFBFeVhxwwnb-263" value="6" style="connectable=0;recursiveResize=0;strokeColor=inherit;fillColor=inherit;whiteSpace=wrap;html=1;" vertex="1" parent="wH8gdFpppFBFeVhxwwnb-262">
          <mxGeometry width="91" height="31" as="geometry">
            <mxRectangle width="91" height="31" as="alternateBounds" />
          </mxGeometry>
        </mxCell>
        <mxCell id="wH8gdFpppFBFeVhxwwnb-264" value="PRO" style="connectable=0;recursiveResize=0;strokeColor=inherit;fillColor=inherit;whiteSpace=wrap;html=1;" vertex="1" parent="wH8gdFpppFBFeVhxwwnb-262">
          <mxGeometry x="91" width="91" height="31" as="geometry">
            <mxRectangle width="91" height="31" as="alternateBounds" />
          </mxGeometry>
        </mxCell>
        <mxCell id="wH8gdFpppFBFeVhxwwnb-265" value="1" style="connectable=0;recursiveResize=0;strokeColor=inherit;fillColor=inherit;whiteSpace=wrap;html=1;" vertex="1" parent="wH8gdFpppFBFeVhxwwnb-262">
          <mxGeometry x="182" width="91" height="31" as="geometry">
            <mxRectangle width="91" height="31" as="alternateBounds" />
          </mxGeometry>
        </mxCell>
        <mxCell id="wH8gdFpppFBFeVhxwwnb-266" value="FIXED" style="connectable=0;recursiveResize=0;strokeColor=inherit;fillColor=inherit;whiteSpace=wrap;html=1;" vertex="1" parent="wH8gdFpppFBFeVhxwwnb-262">
          <mxGeometry x="273" width="91" height="31" as="geometry">
            <mxRectangle width="91" height="31" as="alternateBounds" />
          </mxGeometry>
        </mxCell>
        <mxCell id="wH8gdFpppFBFeVhxwwnb-268" value="APP_AEROSPIKE_CONFIG" style="text;html=1;align=center;verticalAlign=middle;whiteSpace=wrap;rounded=0;fontStyle=1" vertex="1" parent="1">
          <mxGeometry x="-40" y="-35" width="158" height="30" as="geometry" />
        </mxCell>
        <mxCell id="wH8gdFpppFBFeVhxwwnb-269" value="ABM_CONFIG_APP" style="text;html=1;align=center;verticalAlign=middle;whiteSpace=wrap;rounded=0;fontStyle=1" vertex="1" parent="1">
          <mxGeometry x="406" y="-35" width="110" height="30" as="geometry" />
        </mxCell>
      </root>
    </mxGraphModel>
  </diagram>
</mxfile>
